<svg width="226" height="36" viewBox="0 0 226 36" fill="none" xmlns="http://www.w3.org/2000/svg">
<path d="M12.5 22.5C13.7756 23.4455 15.3268 24 17 24C18.6732 24 20.2244 23.4455 21.5 22.5" stroke="white" stroke-width="1.5" stroke-linecap="round"/>
<path d="M21.5 12.5C21.695 12.5 21.9327 12.6187 22.1445 12.9365C22.354 13.2508 22.5 13.7137 22.5 14.25C22.5 14.7863 22.354 15.2492 22.1445 15.5635C21.9327 15.8813 21.695 16 21.5 16C21.305 16 21.0673 15.8813 20.8555 15.5635C20.646 15.2492 20.5 14.7863 20.5 14.25C20.5 13.7137 20.646 13.2508 20.8555 12.9365C21.0673 12.6187 21.305 12.5 21.5 12.5Z" fill="white" stroke="white"/>
<path d="M12.5 12.5C12.695 12.5 12.9327 12.6187 13.1445 12.9365C13.354 13.2508 13.5 13.7137 13.5 14.25C13.5 14.7863 13.354 15.2492 13.1445 15.5635C12.9327 15.8813 12.695 16 12.5 16C12.305 16 12.0673 15.8813 11.8555 15.5635C11.646 15.2492 11.5 14.7863 11.5 14.25C11.5 13.7137 11.646 13.2508 11.8555 12.9365C12.0673 12.6187 12.305 12.5 12.5 12.5Z" fill="white" stroke="white"/>
<path d="M32 29.5845V18.4509C32 9.9176 25.2843 3 17 3C8.71573 3 2 9.9176 2 18.4509V29.5845C2 31.568 4.02647 32.8581 5.7488 31.971C7.14088 31.2541 8.7992 31.3604 10.0942 32.2497C11.551 33.2501 13.449 33.2501 14.9058 32.2497L15.4348 31.8864C16.3826 31.2356 17.6174 31.2356 18.5652 31.8864L19.0942 32.2497C20.551 33.2501 22.449 33.2501 23.9058 32.2497C25.2008 31.3604 26.8591 31.2541 28.2512 31.971C29.9735 32.8581 32 31.568 32 29.5845Z" stroke="white" stroke-width="1.5"/>
<path d="M40.9775 13.4434C40.5837 13.4434 40.3867 13.2822 40.3867 12.96V12.0791C40.3867 11.7568 40.5837 11.5957 40.9775 11.5957H52.3428C52.7367 11.5957 52.9336 11.7568 52.9336 12.0791V12.96C52.9336 13.2822 52.7367 13.4434 52.3428 13.4434H47.6914V26.4092C47.6914 26.8031 47.5124 27 47.1543 27H46.166C45.8079 27 45.6289 26.8031 45.6289 26.4092V13.4434H40.9775ZM51.9131 23.9922C51.9131 22.7174 52.5075 21.7829 53.6963 21.1885C54.8923 20.5941 56.6755 20.2467 59.0459 20.1465V19.416C59.0459 18.7428 58.8919 18.1628 58.584 17.6758C58.2832 17.1816 57.6816 16.9346 56.7793 16.9346C56.2064 16.9346 55.748 16.9919 55.4043 17.1064C55.0605 17.2139 54.7454 17.3607 54.459 17.5469C54.1797 17.7259 53.9111 17.9587 53.6533 18.2451C53.46 18.46 53.2773 18.4707 53.1055 18.2773L52.5469 17.6328C52.3893 17.4538 52.443 17.2389 52.708 16.9883C53.0876 16.6302 53.4564 16.3617 53.8145 16.1826C54.1725 16.0036 54.6165 15.8532 55.1465 15.7314C55.6836 15.6025 56.2279 15.5381 56.7793 15.5381C58.276 15.5381 59.3431 15.9248 59.9805 16.6982C60.6178 17.4645 60.9365 18.5173 60.9365 19.8564V26.5166C60.9365 26.8389 60.7754 27 60.4531 27H59.4863C59.207 27 59.0674 26.8389 59.0674 26.5166V25.9902H59.0459C58.4801 26.4342 57.9251 26.7458 57.3809 26.9248C56.8438 27.0967 56.2422 27.1826 55.5762 27.1826C54.4017 27.1826 53.4958 26.9033 52.8584 26.3447C52.2282 25.779 51.9131 24.9948 51.9131 23.9922ZM53.8682 24.0352C53.8682 24.4792 53.9613 24.8372 54.1475 25.1094C54.3337 25.3743 54.5915 25.5462 54.9209 25.625C55.2503 25.6966 55.5941 25.7324 55.9521 25.7324C56.5036 25.7324 57.0264 25.6787 57.5205 25.5713C58.0146 25.4639 58.5231 25.181 59.0459 24.7227V21.5537C57.5993 21.6611 56.568 21.7936 55.9521 21.9512C55.3363 22.1016 54.835 22.3665 54.4482 22.7461C54.0615 23.1185 53.8682 23.5482 53.8682 24.0352ZM63.7295 27C63.2497 27 63.1566 26.7887 63.4502 26.3662L67.1133 21.0596L63.8584 16.3545C63.5648 15.932 63.6579 15.7207 64.1377 15.7207H65.1904C65.4482 15.7207 65.638 15.8138 65.7598 16L68.1338 19.7383L70.4971 16C70.6117 15.8138 70.8014 15.7207 71.0664 15.7207H72.1299C72.6097 15.7207 72.7028 15.932 72.4092 16.3545L69.1543 21.0596L72.8174 26.3662C73.111 26.7887 73.0179 27 72.5381 27H71.4854C71.2275 27 71.0378 26.9069 70.916 26.7207L68.1338 22.3701L65.3516 26.7207C65.2298 26.9069 65.04 27 64.7822 27H63.7295ZM75.2988 27C74.9408 27 74.7617 26.8031 74.7617 26.4092V12.1865C74.7617 11.7926 74.9408 11.5957 75.2988 11.5957H77.5869C77.859 11.5957 78.0632 11.8105 78.1992 12.2402L81.2715 21.876C81.5866 22.8643 81.7728 23.4622 81.8301 23.6699C81.8874 23.8704 81.9697 24.2428 82.0771 24.7871H82.1416C82.249 24.2428 82.3314 23.8704 82.3887 23.6699C82.446 23.4622 82.6322 22.8643 82.9473 21.876L86.0195 12.2402C86.1556 11.8105 86.3597 11.5957 86.6318 11.5957H88.9199C89.278 11.5957 89.457 11.7926 89.457 12.1865V26.4092C89.457 26.8031 89.278 27 88.9199 27H87.9316C87.5736 27 87.3945 26.8031 87.3945 26.4092V15.1406C87.3945 14.8542 87.4017 14.5677 87.416 14.2812H87.373L83.4092 26.3447C83.266 26.7816 83.0296 27 82.7002 27H81.5186C81.1891 27 80.9528 26.7816 80.8096 26.3447L76.8457 14.2812H76.8027C76.8171 14.5677 76.8242 14.8542 76.8242 15.1406V26.4092C76.8242 26.8031 76.6452 27 76.2871 27H75.2988ZM92.1963 23.9922C92.1963 22.7174 92.7907 21.7829 93.9795 21.1885C95.1755 20.5941 96.9587 20.2467 99.3291 20.1465V19.416C99.3291 18.7428 99.1751 18.1628 98.8672 17.6758C98.5664 17.1816 97.9648 16.9346 97.0625 16.9346C96.4896 16.9346 96.0312 16.9919 95.6875 17.1064C95.3438 17.2139 95.0286 17.3607 94.7422 17.5469C94.4629 17.7259 94.1943 17.9587 93.9365 18.2451C93.7432 18.46 93.5605 18.4707 93.3887 18.2773L92.8301 17.6328C92.6725 17.4538 92.7262 17.2389 92.9912 16.9883C93.3708 16.6302 93.7396 16.3617 94.0977 16.1826C94.4557 16.0036 94.8997 15.8532 95.4297 15.7314C95.9668 15.6025 96.5111 15.5381 97.0625 15.5381C98.5592 15.5381 99.6263 15.9248 100.264 16.6982C100.901 17.4645 101.22 18.5173 101.22 19.8564V26.5166C101.22 26.8389 101.059 27 100.736 27H99.7695C99.4902 27 99.3506 26.8389 99.3506 26.5166V25.9902H99.3291C98.7633 26.4342 98.2083 26.7458 97.6641 26.9248C97.127 27.0967 96.5254 27.1826 95.8594 27.1826C94.6849 27.1826 93.779 26.9033 93.1416 26.3447C92.5114 25.779 92.1963 24.9948 92.1963 23.9922ZM94.1514 24.0352C94.1514 24.4792 94.2445 24.8372 94.4307 25.1094C94.6169 25.3743 94.8747 25.5462 95.2041 25.625C95.5335 25.6966 95.8773 25.7324 96.2354 25.7324C96.7868 25.7324 97.3096 25.6787 97.8037 25.5713C98.2979 25.4639 98.8063 25.181 99.3291 24.7227V21.5537C97.8825 21.6611 96.8512 21.7936 96.2354 21.9512C95.6195 22.1016 95.1182 22.3665 94.7314 22.7461C94.3447 23.1185 94.1514 23.5482 94.1514 24.0352ZM104.765 27C104.442 27 104.281 26.8389 104.281 26.5166V16.2041C104.281 15.8818 104.442 15.7207 104.765 15.7207H105.667C105.989 15.7207 106.15 15.8818 106.15 16.2041V17.4932H106.193C106.537 16.8486 106.942 16.3617 107.407 16.0322C107.873 15.7028 108.453 15.5381 109.147 15.5381C109.606 15.5381 109.928 15.5775 110.114 15.6562C110.279 15.7207 110.34 15.8281 110.297 15.9785L110.05 16.8594C110.014 16.9883 109.921 17.0384 109.771 17.0098C109.52 16.9596 109.284 16.9346 109.062 16.9346C108.224 16.9346 107.533 17.3141 106.988 18.0732C106.444 18.8252 106.172 19.8529 106.172 21.1562V26.5166C106.172 26.8389 106.011 27 105.688 27H104.765ZM112.521 27C112.198 27 112.037 26.8389 112.037 26.5166V11.6279C112.037 11.3057 112.198 11.1445 112.521 11.1445H113.444C113.767 11.1445 113.928 11.3057 113.928 11.6279V20.5654C113.928 20.7803 113.921 20.9951 113.906 21.21H113.928L118.278 16C118.436 15.8138 118.626 15.7207 118.848 15.7207H119.825C120.369 15.7207 120.463 15.932 120.104 16.3545L116.731 20.3721L120.588 26.3662C120.86 26.7887 120.767 27 120.309 27H119.256C119.02 27 118.815 26.8675 118.644 26.6025L115.55 21.7793L113.928 23.7129V26.5166C113.928 26.8389 113.767 27 113.444 27H112.521ZM122.21 21.3604C122.21 19.5843 122.654 18.1699 123.542 17.1172C124.43 16.0645 125.701 15.5381 127.355 15.5381C128.73 15.5381 129.869 16.0215 130.771 16.9883C131.681 17.9479 132.136 19.484 132.136 21.5967C132.136 21.9189 131.989 22.0801 131.695 22.0801H124.208C124.33 23.4622 124.702 24.4255 125.325 24.9697C125.948 25.5068 126.654 25.7754 127.441 25.7754C128.272 25.7754 128.91 25.6357 129.354 25.3564C129.798 25.0771 130.123 24.8014 130.331 24.5293C130.56 24.2285 130.782 24.1712 130.997 24.3574L131.631 24.9053C131.796 25.0485 131.796 25.2454 131.631 25.4961C131.495 25.7038 131.104 26.0368 130.46 26.4951C129.823 26.9535 128.816 27.1826 127.441 27.1826C125.651 27.1826 124.33 26.6562 123.478 25.6035C122.632 24.5508 122.21 23.1364 122.21 21.3604ZM124.165 20.6836H130.234C130.206 19.681 129.948 18.8037 129.461 18.0518C128.974 17.2926 128.258 16.9131 127.312 16.9131C126.482 16.9131 125.776 17.1924 125.196 17.751C124.616 18.3024 124.272 19.2799 124.165 20.6836ZM134.069 17.1387C133.747 17.1387 133.586 17.0133 133.586 16.7627V16.0967C133.586 15.846 133.747 15.7207 134.069 15.7207H135.337V14.7539C135.337 14.6107 135.373 14.4746 135.444 14.3457L136.196 12.9814C136.332 12.7308 136.443 12.6055 136.529 12.6055H136.905C137.12 12.6055 137.228 12.7308 137.228 12.9814V15.7207H139.516C139.838 15.7207 139.999 15.846 139.999 16.0967V16.7627C139.999 17.0133 139.838 17.1387 139.516 17.1387H137.228V23.9814C137.228 24.7334 137.339 25.224 137.561 25.4531C137.79 25.6751 138.062 25.7861 138.377 25.7861C138.62 25.7861 138.91 25.7145 139.247 25.5713C139.591 25.4281 139.827 25.3063 139.956 25.2061C140.085 25.1058 140.185 25.138 140.257 25.3027L140.611 26.1299C140.669 26.2731 140.626 26.3877 140.482 26.4736C140.203 26.6383 139.795 26.7995 139.258 26.957C138.721 27.1074 138.184 27.1826 137.646 27.1826C136.902 27.1826 136.329 26.9141 135.928 26.377C135.534 25.8398 135.337 25.0807 135.337 24.0996V17.1387H134.069ZM142.223 19.2979C142.223 16.7913 142.842 14.8291 144.081 13.4111C145.327 11.986 147.114 11.2734 149.441 11.2734C150.802 11.2734 151.926 11.5062 152.814 11.9717C153.702 12.43 154.34 13.0602 154.727 13.8623C154.927 14.2777 154.895 14.5641 154.63 14.7217L153.781 15.2158C153.495 15.3805 153.241 15.2445 153.019 14.8076C152.782 14.3564 152.396 13.9339 151.858 13.54C151.321 13.1462 150.551 12.9492 149.549 12.9492C147.758 12.9492 146.455 13.5078 145.639 14.625C144.829 15.735 144.425 17.2926 144.425 19.2979C144.425 21.3031 144.829 22.8643 145.639 23.9814C146.455 25.0915 147.758 25.6465 149.549 25.6465C150.58 25.6465 151.404 25.4102 152.02 24.9375C152.643 24.4648 153.094 23.9707 153.373 23.4551C153.595 23.0397 153.853 22.9144 154.146 23.0791L155.038 23.584C155.296 23.7344 155.317 24.0208 155.103 24.4434C154.68 25.2669 153.993 25.9544 153.04 26.5059C152.088 27.0501 150.888 27.3223 149.441 27.3223C147.114 27.3223 145.327 26.6133 144.081 25.1953C142.842 23.7702 142.223 21.8044 142.223 19.2979ZM157.208 23.9922C157.208 22.7174 157.802 21.7829 158.991 21.1885C160.187 20.5941 161.97 20.2467 164.341 20.1465V19.416C164.341 18.7428 164.187 18.1628 163.879 17.6758C163.578 17.1816 162.977 16.9346 162.074 16.9346C161.501 16.9346 161.043 16.9919 160.699 17.1064C160.355 17.2139 160.04 17.3607 159.754 17.5469C159.475 17.7259 159.206 17.9587 158.948 18.2451C158.755 18.46 158.572 18.4707 158.4 18.2773L157.842 17.6328C157.684 17.4538 157.738 17.2389 158.003 16.9883C158.382 16.6302 158.751 16.3617 159.109 16.1826C159.467 16.0036 159.911 15.8532 160.441 15.7314C160.979 15.6025 161.523 15.5381 162.074 15.5381C163.571 15.5381 164.638 15.9248 165.275 16.6982C165.913 17.4645 166.231 18.5173 166.231 19.8564V26.5166C166.231 26.8389 166.07 27 165.748 27H164.781C164.502 27 164.362 26.8389 164.362 26.5166V25.9902H164.341C163.775 26.4342 163.22 26.7458 162.676 26.9248C162.139 27.0967 161.537 27.1826 160.871 27.1826C159.697 27.1826 158.791 26.9033 158.153 26.3447C157.523 25.779 157.208 24.9948 157.208 23.9922ZM159.163 24.0352C159.163 24.4792 159.256 24.8372 159.442 25.1094C159.629 25.3743 159.886 25.5462 160.216 25.625C160.545 25.6966 160.889 25.7324 161.247 25.7324C161.799 25.7324 162.321 25.6787 162.815 25.5713C163.31 25.4639 163.818 25.181 164.341 24.7227V21.5537C162.894 21.6611 161.863 21.7936 161.247 21.9512C160.631 22.1016 160.13 22.3665 159.743 22.7461C159.356 23.1185 159.163 23.5482 159.163 24.0352ZM169.776 31.2969C169.454 31.2969 169.293 31.1357 169.293 30.8135V16.2041C169.293 15.8818 169.454 15.7207 169.776 15.7207H170.679C170.937 15.7207 171.076 15.8818 171.098 16.2041L171.162 17.0635H171.184C171.577 16.5908 172.021 16.2184 172.516 15.9463C173.01 15.6742 173.669 15.5381 174.492 15.5381C175.924 15.5381 177.013 16.1253 177.758 17.2998C178.503 18.4671 178.875 19.8206 178.875 21.3604C178.875 22.9001 178.503 24.2572 177.758 25.4316C177.013 26.599 175.924 27.1826 174.492 27.1826C173.669 27.1826 173.01 27.0465 172.516 26.7744C172.021 26.5023 171.577 26.1299 171.184 25.6572H171.162C171.176 25.8721 171.184 26.0905 171.184 26.3125V30.8135C171.184 31.1357 171.022 31.2969 170.7 31.2969H169.776ZM171.184 22.5957C171.184 23.6699 171.438 24.472 171.946 25.002C172.462 25.5247 173.106 25.7861 173.88 25.7861C174.968 25.7861 175.738 25.3779 176.189 24.5615C176.648 23.7451 176.877 22.6781 176.877 21.3604C176.877 20.0426 176.648 18.9756 176.189 18.1592C175.738 17.3428 174.968 16.9346 173.88 16.9346C173.106 16.9346 172.462 17.1995 171.946 17.7295C171.438 18.2523 171.184 19.0508 171.184 20.125V22.5957Z" fill="white"/>
</svg>
